<?xml version="1.0" standalone="no"?>
<!DOCTYPE svg PUBLIC "-//W3C//DTD SVG 20010904//EN"
 "http://www.w3.org/TR/2001/REC-SVG-20010904/DTD/svg10.dtd">
<svg version="1.0" xmlns="http://www.w3.org/2000/svg"
 width="700.000000pt" height="700.000000pt" viewBox="0 0 700.000000 700.000000"
 preserveAspectRatio="xMidYMid meet">
<metadata>
Created by potrace 1.14, written by Peter Selinger 2001-2017
</metadata>
<g transform="translate(0.000000,700.000000) scale(0.100000,-0.100000)"
fill="#000000" stroke="none">
<path d="M3808 6050 c-58 -10 -162 -59 -210 -100 -47 -39 -91 -117 -113 -202
-17 -65 -17 -68 3 -135 25 -81 62 -122 140 -152 46 -18 76 -21 225 -22 95 -1
183 -4 197 -8 36 -10 30 -37 -45 -226 -78 -194 -142 -350 -159 -390 -8 -16
-26 -61 -40 -100 -15 -38 -31 -79 -36 -90 -18 -39 -64 -153 -284 -700 -20 -49
-41 -99 -46 -110 -9 -20 -135 -334 -190 -470 -15 -38 -53 -133 -85 -210 -32
-77 -65 -160 -74 -185 -9 -25 -20 -51 -25 -58 -4 -7 -11 -25 -16 -40 -18 -57
-158 -393 -174 -417 -9 -14 -28 -30 -42 -35 -15 -6 -247 -10 -566 -10 -536 0
-543 0 -687 -26 -279 -49 -445 -126 -596 -279 -147 -148 -227 -305 -277 -540
-17 -82 -4 -316 22 -415 78 -294 327 -549 635 -649 144 -46 381 -70 510 -51
44 6 110 16 147 20 75 10 135 27 253 72 322 121 632 396 808 718 46 84 150
295 192 390 21 47 46 97 56 111 l18 26 208 6 c510 12 890 95 1243 271 253 126
526 344 729 581 71 84 242 316 309 421 65 101 242 450 261 514 5 19 22 67 36
105 15 39 31 86 36 105 5 19 16 58 24 85 34 114 56 222 70 338 8 67 19 151 25
187 15 99 12 395 -4 486 -8 44 -18 104 -22 134 -17 137 -118 385 -201 496
-145 193 -334 339 -538 418 -38 15 -79 31 -90 36 -42 19 -182 51 -328 76 -149
26 -162 27 -702 30 -302 1 -571 -1 -597 -6z m1289 -649 c202 -59 356 -192 447
-386 45 -95 57 -141 77 -298 13 -99 6 -220 -22 -412 -25 -166 -124 -461 -225
-670 -251 -519 -607 -910 -994 -1092 -180 -85 -339 -125 -577 -145 -145 -12
-179 -8 -188 22 -5 17 72 232 115 320 4 8 18 42 30 75 13 33 31 78 41 100 10
22 27 63 37 90 29 75 82 207 92 230 16 34 182 445 230 565 21 53 47 117 60
145 5 11 21 52 36 90 15 39 35 89 45 112 11 23 19 45 19 49 0 4 11 30 24 58
13 28 45 105 70 171 26 66 51 129 56 140 17 39 59 141 90 220 133 334 193 481
200 490 4 6 13 28 20 49 7 22 22 55 33 74 l20 34 96 -5 c55 -3 127 -14 168
-26z m-2509 -3662 c5 -40 -103 -224 -200 -340 -218 -263 -513 -382 -741 -299
-90 33 -178 111 -214 189 -21 45 -26 71 -26 136 -1 96 28 169 89 226 51 47 83
64 174 94 75 24 76 24 495 22 l420 -2 3 -26z"/>
</g>
</svg>
