<?xml version="1.0" standalone="no"?>
<!DOCTYPE svg PUBLIC "-//W3C//DTD SVG 20010904//EN"
 "http://www.w3.org/TR/2001/REC-SVG-20010904/DTD/svg10.dtd">
<svg version="1.0" xmlns="http://www.w3.org/2000/svg"
 width="1024.000000pt" height="1024.000000pt" viewBox="0 0 1024.000000 1024.000000"
 preserveAspectRatio="xMidYMid meet">
<metadata>
Created by potrace 1.14, written by Peter Selinger 2001-2017
</metadata>
<g transform="translate(0.000000,1024.000000) scale(0.100000,-0.100000)"
fill="#000000" stroke="none">
<path d="M5483 8365 c-133 -29 -273 -127 -336 -235 -55 -95 -73 -244 -41 -351
21 -72 87 -138 169 -169 56 -22 76 -24 333 -28 149 -2 272 -7 272 -10 0 -4
-355 -882 -789 -1952 l-788 -1945 -739 -6 c-685 -5 -749 -7 -870 -27 -379 -60
-617 -169 -823 -374 -402 -401 -487 -1058 -198 -1543 93 -157 287 -342 460
-439 394 -220 979 -232 1458 -30 364 154 742 485 944 829 70 118 188 354 296
590 l87 190 273 6 c699 17 1164 118 1624 352 279 143 493 303 751 561 633 634
1042 1462 1144 2315 32 268 29 651 -5 855 -66 387 -207 669 -454 909 -313 303
-732 465 -1306 507 -219 16 -1385 12 -1462 -5z m1651 -819 c185 -47 318 -120
440 -242 205 -206 299 -490 283 -859 -23 -512 -225 -1089 -564 -1609 -289
-443 -616 -760 -976 -945 -278 -142 -542 -208 -881 -218 -182 -6 -189 -5 -184
13 4 16 1422 3511 1541 3798 l41 99 103 -7 c56 -4 145 -17 197 -30z m-3164
-4682 c0 -15 -84 -182 -133 -266 -234 -396 -552 -630 -877 -646 -172 -8 -297
36 -406 143 -106 104 -148 232 -127 380 31 219 180 343 461 384 65 10 1082 14
1082 5z"/>
</g>
</svg>
