<?xml version="1.0" standalone="no"?>
<!DOCTYPE svg PUBLIC "-//W3C//DTD SVG 20010904//EN"
 "http://www.w3.org/TR/2001/REC-SVG-20010904/DTD/svg10.dtd">
<svg version="1.0" xmlns="http://www.w3.org/2000/svg"
 width="1024.000000pt" height="1024.000000pt" viewBox="0 0 1024.000000 1024.000000"
 preserveAspectRatio="xMidYMid meet">
<metadata>
Created by potrace 1.14, written by Peter Selinger 2001-2017
</metadata>
<g transform="translate(0.000000,1024.000000) scale(0.100000,-0.100000)"
fill="#000000" stroke="none">
<path d="M5583 9309 c-212 -35 -404 -190 -474 -384 -29 -80 -32 -275 -6 -345
40 -103 103 -161 218 -201 60 -22 84 -23 390 -29 l327 -5 -953 -2345 -952
-2345 -874 -6 c-594 -4 -903 -9 -964 -17 -399 -54 -648 -135 -874 -286 -317
-211 -547 -560 -633 -960 -32 -149 -32 -454 0 -614 78 -388 290 -699 633 -928
179 -119 394 -203 636 -245 170 -31 518 -33 688 -6 489 79 893 286 1274 652
191 184 338 379 477 634 71 131 273 551 340 708 l39 93 235 0 c747 1 1340 107
1865 334 653 282 1244 814 1728 1551 409 624 661 1306 742 2009 77 664 16
1194 -185 1614 -325 677 -973 1051 -1945 1122 -169 12 -1658 11 -1732 -1z
m1903 -988 c244 -47 421 -138 585 -301 137 -135 238 -309 290 -496 120 -438
50 -1014 -202 -1654 -304 -775 -830 -1469 -1389 -1833 -184 -120 -419 -227
-623 -286 -232 -67 -394 -90 -665 -98 l-213 -6 10 24 c5 13 428 1055 941 2314
513 1260 939 2308 948 2329 l15 39 102 -6 c57 -4 147 -15 201 -26z m-3786
-5725 c-160 -347 -377 -626 -627 -808 -92 -67 -269 -152 -373 -179 -122 -33
-325 -33 -425 -2 -201 63 -362 233 -396 418 -15 79 -6 204 20 286 49 156 188
273 385 325 139 37 228 42 848 43 l607 1 -39 -84z"/>
</g>
</svg>
